<svg id="Layer_1" data-name="Layer 1" xmlns="http://www.w3.org/2000/svg" viewBox="0 0 496.16 496.15"><defs><style>.cls-1{fill:#fff;}.cls-2{fill:#b5392c;}.cls-3{fill:#cb4a35;}.cls-4{fill:#edc92f;}.cls-5{fill:#f7f7f7;}.cls-6{fill:#606060;}.cls-7{fill:#d3d3d3;}.cls-8{fill:#e8af21;}</style></defs><title>icon</title><path class="cls-1" d="M256,7.92C119,7.92,7.92,119,7.92,256S119,504.08,256,504.08,504.08,393,504.08,256,393,7.92,256,7.92Z" transform="translate(-7.92 -7.92)"/><path class="cls-2" d="M404,179.11c0-4.36-10.17-10.17-10.17-10.17-6.54-3.63-10.9-5.81-10.9-5.81L327,160.22s-14.53,14.53-13.08,35.59c1.08,15.68,34.87,10.71,34.87,10.71,3.63-8,24.7-15.8,24.7-15.8,5.81-2.9,18.89-2.18,18.89-2.18C406.86,187.1,404,179.11,404,179.11Z" transform="translate(-7.92 -7.92)"/><path class="cls-3" d="M394.51,141.33c-8.72,1.45-24,1.45-24,1.45-15.26,0-19.61-11.38-19.61-11.38-29.06,4.36-29.06,57.14-29.06,57.14,15.25-2.18,33.9-4.36,50.12-9.44s32.69-32,32.69-32C412.67,136.25,394.51,141.33,394.51,141.33Z" transform="translate(-7.92 -7.92)"/><path class="cls-4" d="M410.31,303.33c-4.85-40.16-47-58.13-57-70.72s-3.87-27.12-3.87-27.12c-23.24,8.72-26.15-24.21-26.15-24.21-1-10.65,14.53-11.62,19.37-18.4,3.73-5.22,6.45-17.64,8.23-23.73.53-1.82,4.36-1.45,4.36-1.45C304,57.31,235.07,119.9,227,128.44c-53.57,57,24,119.85,24,119.85-58.44,15.08-87.28,1.57-93.7-8.72-43.19-69.18-54.81.79-54.81.79-5.81,139.47,71.67,157.87,71.67,157.87,93.95,35.83,169,7.1,181.11,2.42C398.31,384,415,342,410.31,303.33Z" transform="translate(-7.92 -7.92)"/><ellipse class="cls-5" cx="303.3" cy="134.38" rx="14.04" ry="14.29"/><ellipse class="cls-6" cx="303.3" cy="134.38" rx="8.21" ry="8.35"/><ellipse class="cls-7" cx="304.75" cy="130.75" rx="3.37" ry="3.42"/><path class="cls-8" d="M368.31,256.67S403,309.33,385,366.67C385,366.67,435.64,300.67,368.31,256.67Z" transform="translate(-7.92 -7.92)"/><path class="cls-8" d="M114.31,245s-2,110,62,139C176.31,384,131.31,327,114.31,245Z" transform="translate(-7.92 -7.92)"/><path class="cls-8" d="M220.31,157s-8,64,54,88C274.31,245,234.31,211,220.31,157Z" transform="translate(-7.92 -7.92)"/></svg>